PathFileType  4	(X/Y/Z) C:\Users\antoi\Documents\MyRepositories\mobilecap\ResultsAnalysis
DataRate	CameraRate	NumFrames	NumMarkers	Units	OrigDataRate	OrigDataStartFrame	OrigNumFrames
100.0	100.0	4	55	mm	100.0	510	679
Frame#	Time	r_knee			r_shank_antsup			r_ankle			r_calc			r_5meta			r_toe			L_knee			L_shank_antsup			L_ankle			L_calc			L_5meta			L_toe			r_mknee			r_mankle			L_mknee			L_mankle			r_sh2			r_sh3			r_sh4			L_sh2			L_sh3			r_thigh1			r_thigh2			r_thigh3			r_thigh4			r_thigh5			L_thigh1			L_thigh2			L_thigh3			L_thigh4			r.ASIS			r.PSIS			L.ASIS			L.PSIS			C7			R_Shoulder			L_Shoulder			R_Sternum			L_Sternum			R_humerus			R_elbow_med			R_elbow_lat			R_forearm			R_wrist_radius			R_wrist_ulna			L_humerus			L_elbow_med			L_elbow_lat			L_forearm			L_wrist_radius			L_wrist_ulna			R_HJC			L_HJC			R_HJC_reg			L_HJC_reg			
		X1	Y1	Z1	X2	Y2	Z2	X3	Y3	Z3	X4	Y4	Z4	X5	Y5	Z5	X6	Y6	Z6	X7	Y7	Z7	X8	Y8	Z8	X9	Y9	Z9	X10	Y10	Z10	X11	Y11	Z11	X12	Y12	Z12	X13	Y13	Z13	X14	Y14	Z14	X15	Y15	Z15	X16	Y16	Z16	X17	Y17	Z17	X18	Y18	Z18	X19	Y19	Z19	X20	Y20	Z20	X21	Y21	Z21	X22	Y22	Z22	X23	Y23	Z23	X24	Y24	Z24	X25	Y25	Z25	X26	Y26	Z26	X27	Y27	Z27	X28	Y28	Z28	X29	Y29	Z29	X30	Y30	Z30	X31	Y31	Z31	X32	Y32	Z32	X33	Y33	Z33	X34	Y34	Z34	X35	Y35	Z35	X36	Y36	Z36	X37	Y37	Z37	X38	Y38	Z38	X39	Y39	Z39	X40	Y40	Z40	X41	Y41	Z41	X42	Y42	Z42	X43	Y43	Z43	X44	Y44	Z44	X45	Y45	Z45	X46	Y46	Z46	X47	Y47	Z47	X48	Y48	Z48	X49	Y49	Z49	X50	Y50	Z50	X51	Y51	Z51	X52	Y52	Z52	X53	Y53	Z53	X54	Y54	Z54	X55	Y55	Z55	

510	5.09000000	-221.13057	473.94169	-434.20375	-189.79547	365.15964	-449.45595	-256.41895	89.98499	-466.12069	-302.53073	52.01940	-517.34164	-141.72514	39.90877	-434.87658	-105.49894	58.72566	-476.86665	-214.98205	475.59950	-787.22083	-179.69188	374.66172	-747.96396	-256.23362	88.14357	-770.95520	-296.55483	51.39429	-719.83634	-134.27490	36.61046	-788.98501	-94.67274	58.65225	-736.05173	-240.16843	473.96756	-566.69872	-231.17060	108.03422	-544.05082	-223.86944	473.89086	-655.54685	-226.32678	104.80321	-689.56931	-199.32280	253.69780	-459.93545	-244.93850	363.01334	-397.23687	-270.30956	257.00356	-417.98186	-234.21797	397.93517	-816.07633	-245.51006	277.11006	-826.97135	-124.38495	776.77612	-452.83659	-124.40289	665.75843	-448.76470	-168.35587	641.57351	-404.46447	-226.43202	774.88360	-404.69371	-221.46116	659.61898	-399.52007	-131.33321	767.81570	-784.61312	-125.86467	628.95215	-783.09299	-236.51053	769.26136	-823.87137	-232.95660	628.43013	-816.35925	-114.34369	939.37212	-486.86355	-293.58586	988.56726	-561.10783	-102.52753	938.33442	-732.73051	-291.96361	988.05105	-677.56051	-294.06502	1434.66157	-620.53944	-238.78472	1407.94232	-464.54025	-234.55030	1413.81904	-778.28159	-167.53941	1399.62401	-604.34160	-164.75754	1396.57927	-642.68925	-206.38998	1280.62918	-403.42927	-258.06811	1080.68193	-457.56893	-231.29183	1086.05025	-387.60759	-168.97357	976.58345	-371.01895	-126.76036	880.02390	-375.21631	-157.85485	869.44028	-358.15187	-199.81175	1262.46591	-837.17274	-246.00246	1071.75372	-774.14401	-229.34888	1077.43853	-846.49972	-172.30107	996.36300	-863.65906	-122.19497	873.84756	-850.02824	-148.23506	865.09135	-868.63276	-205.41474	870.92240	-516.11288	-193.44357	866.60662	-705.06263	-185.88324	872.29678	-522.04099	-183.62031	871.57673	-684.48456	
511	5.10000000	-221.12421	473.94235	-434.23309	-189.78148	365.15215	-449.50633	-256.38143	90.04874	-466.02952	-302.51546	52.03862	-517.32036	-141.71741	39.91709	-434.86997	-105.49190	58.74252	-476.88193	-214.96440	475.60665	-787.20986	-179.70206	374.66706	-747.96173	-256.22564	88.13539	-770.96283	-296.58476	51.41473	-719.84853	-134.28070	36.57920	-789.02449	-94.68000	58.64734	-736.07542	-240.15347	473.96975	-566.70373	-231.16846	108.03248	-544.04983	-223.80075	473.80624	-655.58678	-226.11080	103.75518	-689.71265	-199.31340	253.69547	-459.98633	-244.94059	363.00040	-397.23338	-270.23206	256.85904	-418.00535	-234.22289	397.94193	-816.06225	-245.51032	277.05610	-826.97404	-124.34878	776.78954	-452.81892	-124.36273	665.78411	-448.77708	-168.33417	641.54689	-404.43056	-226.40012	774.86282	-404.74010	-221.46459	659.63370	-399.51289	-131.27462	767.80769	-784.62235	-125.83997	628.95443	-783.07588	-236.48807	769.26461	-823.87806	-232.92570	628.40942	-816.35222	-114.30793	939.41719	-486.79597	-293.55555	988.55459	-561.11021	-102.47961	938.31097	-732.75577	-291.91845	988.06182	-677.56143	-294.04649	1434.66324	-620.53263	-238.75016	1407.95686	-464.55042	-234.50155	1413.80168	-778.29871	-167.49525	1399.61170	-604.35326	-164.73245	1396.56750	-642.69410	-206.32125	1280.62205	-403.48239	-258.05219	1080.68064	-457.57691	-231.21666	1086.03173	-387.67260	-168.93142	976.56459	-371.05873	-126.69573	880.00422	-375.28431	-157.78132	869.44301	-358.19107	-199.78095	1262.44957	-837.18750	-245.98943	1071.75471	-774.13824	-229.30889	1077.42414	-846.49144	-172.29091	996.28586	-863.55061	-122.17344	873.83395	-850.02176	-148.22008	865.05144	-868.55275	-205.37577	870.94624	-516.08536	-193.39320	866.59431	-705.03356	-185.83443	872.23293	-522.01170	-183.54989	871.54530	-684.51690	
512	5.11000000	-221.12591	473.93492	-434.23500	-189.77073	365.14841	-449.54707	-256.38139	90.02683	-466.03517	-302.52194	52.04809	-517.35547	-141.71241	39.93589	-434.87816	-105.49184	58.74131	-476.88810	-214.98391	475.61011	-787.22290	-179.71351	374.66655	-747.96856	-256.22885	88.13448	-770.96198	-296.58198	51.35750	-719.79336	-134.26872	36.54869	-789.02232	-94.68404	58.61728	-736.09860	-240.17315	473.94859	-566.68122	-231.17056	108.03606	-544.04994	-223.79556	473.81121	-655.58028	-226.15977	103.58926	-689.57996	-199.29677	253.72096	-460.00821	-244.92846	362.97519	-397.26692	-269.94135	256.32071	-418.08256	-234.25747	397.97565	-816.03946	-245.53978	276.99177	-826.99334	-124.28444	776.85006	-452.85898	-124.36328	665.76245	-448.73337	-168.30350	641.57437	-404.40382	-226.34377	774.83692	-404.77002	-221.45475	659.62105	-399.51049	-131.20546	767.79302	-784.63505	-125.82555	628.93707	-783.08715	-236.46670	769.26573	-823.88738	-232.90113	628.46625	-816.42660	-114.29008	939.44917	-486.73436	-293.53059	988.54619	-561.11224	-102.42577	938.28274	-732.76741	-291.85481	988.04975	-677.57488	-293.99444	1434.67454	-620.61764	-238.71286	1407.92867	-464.57082	-234.45648	1413.78309	-778.32597	-167.46762	1399.60243	-604.39121	-164.70984	1396.54560	-642.69952	-206.25691	1280.65129	-403.54899	-258.03303	1080.66806	-457.57421	-231.16625	1086.00989	-387.71774	-168.86905	976.55169	-371.10514	-126.61511	879.99987	-375.35452	-157.72513	869.43813	-358.20776	-199.74947	1262.42758	-837.18975	-245.98767	1071.74658	-774.13178	-229.26408	1077.37466	-846.44542	-172.26732	996.22733	-863.48219	-122.14978	873.81985	-850.01387	-148.18768	864.97761	-868.45733	-205.34646	870.96165	-516.05883	-193.33582	866.57224	-705.00438	-185.81688	872.19846	-521.98511	-183.47791	871.50554	-684.53913	
513	5.12000000	-221.12115	473.92760	-434.22691	-189.76207	365.16514	-449.53803	-256.40668	89.98054	-466.10516	-302.55016	52.03386	-517.41065	-141.70948	39.96896	-434.89296	-105.49245	58.73470	-476.88659	-215.01119	475.59365	-787.24297	-179.72314	374.65590	-747.98637	-256.23432	88.13318	-770.95801	-296.41804	51.10588	-719.60026	-134.25034	36.53183	-789.01608	-94.68163	58.55782	-736.10531	-240.17744	473.94719	-566.67362	-231.17411	108.04009	-544.05047	-223.80924	473.82962	-655.57105	-226.22710	103.87149	-689.42248	-199.28973	253.74478	-459.97649	-244.95754	362.96009	-397.27369	-269.69138	255.85932	-418.14407	-234.28899	397.98918	-816.01002	-245.56402	277.03047	-826.98324	-124.24215	776.88346	-452.89974	-124.36864	665.73507	-448.71155	-168.27411	641.62911	-404.41036	-226.28330	774.83236	-404.76493	-221.38491	659.60276	-399.52519	-131.16711	767.79350	-784.63183	-125.82533	628.90123	-783.11388	-236.44959	769.26304	-823.88748	-232.89797	628.51730	-816.48031	-114.26901	939.44133	-486.71486	-293.50704	988.54934	-561.10753	-102.37012	938.26884	-732.78123	-291.79376	988.04979	-677.59394	-293.90884	1434.67842	-620.74150	-238.68220	1407.90397	-464.57195	-234.42272	1413.76023	-778.34735	-167.44170	1399.59661	-604.46514	-164.68523	1396.52296	-642.68659	-206.21575	1280.66380	-403.59294	-258.02255	1080.66489	-457.57723	-231.13543	1085.98229	-387.74425	-168.81915	976.58187	-371.13508	-126.56453	880.01032	-375.40631	-157.67799	869.42154	-358.26075	-199.72736	1262.40458	-837.20095	-245.97545	1071.73865	-774.12580	-229.21217	1077.32666	-846.41445	-172.21705	996.19889	-863.46670	-122.12550	873.81347	-850.02437	-148.14821	864.91203	-868.40606	-205.32349	870.95799	-516.06093	-193.29186	866.56652	-705.00510	-185.81190	872.18256	-521.99377	-183.42072	871.48536	-684.57011	
